<?xml version="1.0" standalone="no"?>
<!DOCTYPE svg PUBLIC "-//W3C//DTD SVG 20010904//EN"
 "http://www.w3.org/TR/2001/REC-SVG-20010904/DTD/svg10.dtd">
<svg version="1.0" xmlns="http://www.w3.org/2000/svg"
 width="933.000000pt" height="933.000000pt" viewBox="0 0 933.000000 933.000000"
 preserveAspectRatio="xMidYMid meet">
<metadata>
Created by potrace 1.14, written by Peter Selinger 2001-2017
</metadata>
<g transform="translate(0.000000,933.000000) scale(0.100000,-0.100000)"
fill="#000000" stroke="none">
<path d="M5565 9214 c-52 -12 -134 -39 -175 -58 -113 -53 -241 -160 -304 -256
-39 -59 -46 -90 -19 -90 14 0 15 -2 1 -17 -9 -10 -21 -43 -28 -73 -6 -30 -16
-71 -20 -90 -9 -37 -6 -167 5 -210 3 -14 0 -40 -9 -60 -13 -32 -13 -38 5 -67
19 -31 19 -31 -2 -67 -11 -20 -24 -36 -28 -36 -8 0 -15 -13 -62 -115 -17 -38
-33 -80 -35 -95 -2 -14 -7 -44 -10 -68 -3 -24 -12 -46 -19 -48 -10 -4 -12 -26
-10 -80 4 -87 11 -125 31 -162 8 -15 14 -35 14 -45 0 -22 45 -112 76 -152 44
-56 69 -86 87 -103 66 -63 105 -94 125 -99 21 -5 23 -10 17 -37 -4 -17 -8 -38
-9 -46 -1 -8 -7 -26 -13 -40 -6 -14 -13 -45 -17 -70 -3 -25 -11 -59 -16 -76
-15 -44 -63 -57 -305 -80 -11 -1 -63 -5 -115 -8 -52 -4 -117 -10 -145 -12 -27
-3 -90 -7 -140 -10 -49 -2 -128 -9 -175 -14 -47 -5 -121 -12 -165 -15 -79 -6
-177 -13 -265 -21 -263 -22 -302 -23 -332 -8 -15 8 -31 15 -35 15 -5 1 -28 10
-53 21 -25 11 -55 24 -67 29 -13 5 -33 13 -45 18 -40 16 -91 38 -148 64 -30
14 -77 33 -104 41 -46 16 -106 41 -170 72 -16 8 -35 14 -42 14 -7 0 -29 9 -49
20 -20 11 -40 20 -46 20 -6 0 -33 11 -61 25 -27 14 -55 25 -61 25 -7 0 -34 11
-62 25 -27 13 -56 25 -63 25 -7 0 -33 11 -57 25 -24 14 -51 28 -62 30 -31 7
-104 35 -157 60 -28 13 -64 27 -81 31 -16 4 -34 10 -40 14 -22 17 -167 60
-201 60 -36 0 -102 30 -138 62 -11 10 -28 20 -38 24 -11 3 -54 26 -96 51 -42
25 -85 49 -96 54 -12 5 -39 20 -61 34 -22 13 -97 54 -167 89 -70 35 -140 73
-155 83 -28 20 -64 37 -137 67 -40 17 -89 18 -118 4 -10 -5 -42 0 -82 12 -36
11 -85 22 -109 24 -24 2 -59 8 -78 14 -19 6 -56 13 -84 17 -27 4 -66 9 -85 13
-19 4 -82 6 -140 6 -82 -1 -117 -6 -161 -23 -52 -20 -58 -25 -71 -66 -15 -43
-14 -45 14 -79 15 -19 53 -46 83 -60 69 -31 260 -96 284 -96 10 0 32 -7 47
-15 16 -8 36 -15 44 -15 8 0 53 -14 100 -30 l85 -30 -78 5 c-43 3 -89 10 -103
15 -33 13 -184 24 -309 23 -99 0 -170 -14 -190 -37 -6 -6 -19 -16 -30 -22 -11
-6 -24 -23 -30 -38 -16 -45 18 -94 93 -134 77 -41 310 -103 447 -118 22 -3 47
-8 55 -11 22 -9 20 -9 95 -18 l70 -8 -40 -13 c-22 -6 -80 -24 -130 -40 -49
-15 -109 -35 -132 -46 -24 -10 -51 -18 -60 -18 -27 0 -114 -49 -145 -81 -53
-54 -27 -142 50 -175 30 -13 62 -15 170 -10 74 3 137 8 142 11 13 8 103 16
180 17 125 1 204 -19 280 -69 57 -38 230 -214 230 -234 0 -21 71 -111 144
-184 49 -48 134 -98 221 -129 22 -7 71 -28 108 -46 38 -17 77 -33 89 -35 11
-2 25 -8 32 -13 6 -5 41 -19 77 -31 36 -12 75 -28 85 -36 10 -8 25 -15 33 -15
12 0 60 -19 166 -65 116 -50 154 -65 163 -65 6 0 23 -7 39 -15 60 -31 120 -55
151 -61 17 -4 37 -13 43 -20 6 -8 17 -14 23 -14 15 0 144 -53 231 -95 86 -42
128 -59 213 -92 178 -67 203 -74 270 -75 78 0 280 11 303 18 9 2 67 7 130 10
63 3 137 8 164 10 28 2 72 6 100 8 27 2 81 7 120 10 38 4 97 9 130 11 129 11
181 16 197 21 16 5 31 -9 34 -34 2 -12 19 -69 49 -169 l12 -43 -46 0 c-25 -1
-89 -3 -141 -5 -52 -2 -165 -7 -250 -10 -85 -4 -182 -8 -215 -9 -33 -1 -77
-10 -99 -19 -43 -19 -48 -19 -306 -14 -210 4 -350 -8 -550 -49 -14 -2 -42 -7
-63 -9 -21 -3 -46 -9 -55 -14 -9 -4 -42 -14 -72 -20 -30 -7 -71 -19 -91 -26
-20 -8 -39 -12 -42 -9 -2 3 -35 -7 -73 -22 -69 -26 -69 -26 -424 -30 -195 -2
-364 -4 -375 -3 -11 0 -27 0 -35 0 -170 -10 -248 -20 -256 -32 -3 -5 -9 -7
-14 -4 -4 3 -20 -1 -35 -9 -15 -8 -34 -12 -43 -9 -11 5 -13 3 -7 -6 5 -10 2
-11 -14 -6 -12 4 -21 2 -21 -4 0 -6 -8 -7 -17 -4 -12 5 -15 2 -10 -9 4 -12 -3
-20 -25 -27 -18 -6 -40 -18 -49 -27 -10 -9 -26 -14 -35 -10 -12 4 -15 2 -10
-9 5 -13 -5 -20 -19 -12 -2 1 -11 -7 -20 -18 -9 -11 -13 -14 -9 -6 4 9 2 12
-7 9 -8 -3 -14 -12 -14 -21 0 -9 -9 -24 -19 -34 -10 -10 -16 -12 -12 -6 5 9 2
11 -8 7 -9 -3 -13 -10 -10 -15 3 -5 -1 -6 -9 -3 -8 3 -22 -7 -32 -23 -10 -15
-17 -28 -15 -28 2 0 -5 -10 -15 -22 -11 -13 -25 -23 -31 -23 -6 0 -18 -15 -25
-32 -7 -18 -20 -38 -29 -45 -11 -9 -12 -14 -3 -24 12 -12 7 -39 -8 -39 -4 0
-5 7 -2 17 14 37 -14 1 -36 -46 -22 -47 -23 -90 -1 -76 6 3 7 -1 4 -9 -6 -15
-17 -20 -37 -17 -4 0 -7 -10 -7 -24 0 -14 5 -25 10 -25 6 0 10 -5 10 -11 0 -6
-7 -9 -15 -5 -9 3 -15 0 -15 -9 0 -8 5 -15 10 -15 7 0 7 -6 0 -19 -5 -11 -8
-34 -5 -53 4 -26 3 -29 -4 -13 l-10 20 -1 -20 c-1 -11 -3 -28 -5 -38 -3 -14 0
-15 9 -8 10 8 12 -5 12 -62 -1 -39 2 -77 7 -84 5 -7 9 -28 10 -48 1 -19 5 -35
9 -35 4 0 8 -8 8 -19 0 -29 68 -186 100 -231 10 -14 32 -54 50 -90 18 -36 41
-74 51 -85 10 -11 41 -65 69 -120 28 -55 61 -116 72 -135 12 -19 34 -60 51
-90 27 -50 106 -185 146 -250 8 -14 35 -63 59 -110 25 -47 50 -92 57 -100 16
-20 142 -239 212 -370 53 -100 90 -164 103 -178 6 -6 23 -36 37 -65 14 -28 29
-54 32 -57 3 -3 24 -40 46 -82 22 -42 55 -105 73 -139 18 -35 46 -83 62 -109
16 -25 45 -80 64 -121 19 -42 42 -81 50 -88 13 -11 8 -19 -30 -59 -25 -26 -52
-59 -61 -73 -8 -14 -28 -34 -43 -44 -15 -10 -34 -28 -41 -41 -16 -25 -112
-106 -179 -150 -79 -53 -153 -90 -225 -114 -38 -13 -111 -42 -161 -65 -166
-77 -281 -221 -331 -415 -6 -22 -4 -153 3 -159 5 -5 616 -14 653 -9 3 0 20 0
38 -1 28 -1 31 -4 31 -29 -1 -15 2 -36 6 -47 22 -57 38 -85 48 -85 6 0 17 -8
24 -17 12 -17 58 -18 761 -15 718 3 826 3 993 2 41 -1 152 -1 245 -1 212 1
915 -6 1259 -12 249 -4 260 -3 299 17 42 23 84 84 74 110 -4 9 -18 13 -41 11
-32 -2 -36 1 -36 22 0 28 -16 61 -39 83 -26 25 -90 38 -188 38 -138 0 -130 -9
-126 130 2 64 4 160 4 213 l1 97 34 -38 c19 -20 34 -41 34 -45 0 -14 259 -264
351 -338 120 -95 322 -218 499 -303 49 -23 76 -34 185 -72 74 -27 163 -52 181
-52 11 0 24 -4 29 -9 6 -5 54 -15 108 -21 53 -6 107 -13 120 -15 145 -24 540
-18 645 10 15 4 36 9 47 10 82 12 163 26 180 34 36 15 90 33 105 35 25 4 112
37 176 67 33 16 66 29 74 29 16 0 179 88 198 107 7 7 18 13 23 13 5 0 31 15
57 33 26 18 74 49 107 69 33 20 67 45 76 55 9 10 32 31 53 47 87 68 135 115
235 231 28 33 58 67 66 76 8 9 15 21 15 27 0 7 4 12 9 12 5 0 26 24 46 53 20
28 54 77 76 107 22 30 44 64 50 75 5 11 28 52 49 90 35 63 77 146 100 200 5
11 18 40 28 65 42 97 52 123 52 142 0 10 7 33 16 49 8 17 17 42 19 57 5 36 23
129 41 222 9 41 18 102 21 135 9 99 5 374 -6 465 -6 47 -13 105 -16 130 -5 49
-23 136 -32 160 -4 8 -7 22 -8 30 -1 8 -5 22 -8 30 -4 8 -11 38 -17 65 -14 69
-43 143 -114 298 -20 43 -36 84 -36 91 0 7 -9 24 -19 37 -10 14 -31 47 -46 74
-52 93 -174 263 -222 310 -13 12 -23 25 -23 29 0 12 -275 278 -320 309 -25 17
-54 40 -65 50 -11 10 -37 27 -58 38 -31 16 -79 46 -192 117 -11 6 -30 16 -42
21 -11 6 -24 15 -28 20 -3 6 -14 11 -23 11 -10 0 -34 11 -54 25 -20 13 -51 27
-69 30 -19 3 -40 12 -49 19 -11 10 -173 67 -200 71 -25 4 -117 29 -125 35 -9
7 -70 18 -125 24 -14 1 -30 5 -35 8 -8 5 -109 20 -150 22 -6 1 -9 25 -8 56 2
53 10 135 13 135 2 0 5 11 19 80 6 28 14 66 17 85 3 19 8 42 11 50 4 8 7 26 8
40 1 14 6 43 12 65 7 22 14 56 16 76 2 20 8 42 11 48 4 6 9 25 11 43 4 39 8
64 30 178 9 47 19 99 22 115 2 17 7 37 10 45 3 8 7 28 9 43 2 16 8 36 12 45 5
9 10 37 11 61 2 24 7 55 12 69 5 14 12 41 15 61 11 73 35 166 47 181 20 25 38
61 43 84 6 34 34 148 45 183 6 18 12 41 14 53 3 11 7 28 9 38 11 43 38 161 47
202 5 25 16 65 23 90 8 25 23 72 33 104 l18 59 320 2 c176 1 337 5 358 9 29 7
45 18 69 53 42 62 47 115 16 172 -44 83 -53 86 -271 88 -532 5 -674 2 -707
-16 -46 -25 -90 -83 -90 -119 0 -9 -4 -29 -9 -46 -11 -38 -43 -165 -46 -186
-1 -8 -5 -29 -10 -47 l-7 -32 -38 19 c-21 11 -58 22 -82 26 -23 4 -49 11 -55
16 -12 9 -356 23 -483 20 -30 -1 -59 -2 -65 -2 -77 -2 -335 7 -340 12 -4 4 -8
120 -10 258 -2 234 -9 294 -29 261 -4 -6 -11 -11 -15 -11 -13 0 -2 271 13 316
2 6 26 12 53 13 112 4 158 16 182 45 7 9 19 16 26 16 13 0 87 83 117 130 43
71 53 175 27 280 -22 84 -45 125 -97 170 -36 32 -146 90 -169 90 -17 0 -23 13
-33 68 -26 145 -92 285 -171 364 -10 10 -23 25 -31 35 -30 40 -121 105 -183
129 -151 60 -191 70 -290 71 -55 1 -109 -1 -120 -3z m686 -1796 c2 -60 1 -177
-1 -243 0 -16 1 -56 3 -87 2 -32 0 -63 -5 -70 -4 -7 -9 -8 -9 -3 -6 33 -3 465
4 465 4 0 8 -28 8 -62z m-9 -440 c-7 -7 -12 -8 -12 -2 0 14 12 26 19 19 2 -3
-1 -11 -7 -17z m-5191 -2190 c-4 -12 -14 -24 -22 -27 -12 -4 -12 -2 0 12 7 10
10 17 5 17 -5 0 -2 5 6 10 20 13 20 13 11 -12z m-90 -169 c-9 -22 -10 -22 -10
-3 -1 11 2 24 6 27 12 12 14 0 4 -24z m6239 -463 c41 -2 82 -7 90 -10 15 -6
58 -13 122 -20 41 -5 68 -12 113 -31 17 -7 57 -20 90 -30 33 -9 68 -24 77 -32
16 -14 15 -19 -13 -67 -16 -29 -29 -59 -29 -67 0 -7 -11 -36 -24 -64 -33 -68
-91 -209 -112 -270 -9 -28 -31 -80 -50 -117 -18 -36 -35 -78 -38 -92 -3 -14
-14 -38 -25 -52 -12 -15 -21 -37 -21 -50 0 -13 -4 -24 -10 -24 -5 0 -12 -17
-16 -37 -4 -21 -14 -43 -23 -50 -9 -6 -13 -15 -9 -18 4 -4 -6 -34 -22 -66 -17
-32 -30 -65 -30 -74 0 -13 -4 -14 -20 -5 -11 6 -33 13 -48 15 -132 18 -133 18
-132 83 1 31 2 122 2 202 0 80 1 312 1 516 l2 371 25 -3 c14 -2 59 -6 100 -8z
m709 -229 c9 -8 34 -24 56 -37 60 -36 173 -122 234 -178 l54 -50 -33 -41 c-19
-23 -37 -41 -42 -41 -4 0 -47 -41 -95 -91 -49 -50 -184 -189 -301 -308 -117
-119 -216 -219 -220 -224 -4 -4 -32 -30 -62 -57 -41 -37 -58 -46 -65 -37 -22
26 -95 77 -110 77 -23 0 -15 46 23 135 53 125 74 180 77 203 2 13 10 33 17 45
8 12 27 58 42 102 26 72 86 209 121 276 8 14 15 36 17 50 2 13 18 54 36 91 17
37 32 70 32 73 0 3 9 28 21 55 l21 48 80 -39 c45 -21 88 -45 97 -52z m-869
-38 c0 -5 -4 -9 -8 -9 -5 0 -9 7 -9 15 0 8 4 12 9 9 4 -3 8 -9 8 -15z m-5 -69
c0 -16 -2 -27 -5 -24 -3 3 -5 19 -6 35 0 16 2 26 5 23 3 -3 6 -18 6 -34z m0
-50 c3 -5 1 -10 -4 -10 -6 0 -11 5 -11 10 0 6 2 10 4 10 3 0 8 -4 11 -10z
m-16 -124 c-9 -8 -10 -5 -5 14 3 14 7 34 7 45 1 11 4 5 6 -14 3 -19 -1 -39 -8
-45z m1415 -201 c81 -108 129 -183 177 -278 24 -47 24 -48 5 -63 -11 -8 -26
-14 -33 -14 -8 0 -34 -11 -59 -25 -25 -14 -49 -25 -53 -25 -5 0 -43 -16 -84
-35 -41 -19 -80 -35 -87 -35 -6 0 -24 -6 -38 -13 -38 -20 -91 -43 -132 -58
-19 -7 -44 -19 -55 -26 -11 -7 -28 -13 -37 -13 -10 0 -44 -14 -75 -30 -31 -17
-60 -30 -65 -30 -5 0 -33 -11 -61 -24 -217 -102 -252 -116 -255 -98 -2 10 -24
44 -50 76 -26 33 -51 65 -57 72 -7 10 8 30 58 77 37 34 67 68 67 75 0 7 4 12
8 12 6 0 319 300 387 371 15 15 224 221 254 249 l26 25 38 -40 c21 -22 76 -89
121 -150z m-1404 133 c0 -18 -2 -20 -9 -8 -6 8 -7 18 -5 22 9 14 14 9 14 -14z
m1 -85 c5 -422 4 -473 -10 -473 -4 0 -7 117 -7 260 1 143 4 260 9 260 4 0 7
-21 8 -47z m-2131 -49 c0 -2 -13 -4 -30 -4 -16 0 -30 4 -30 8 0 5 14 7 30 4
17 -2 30 -6 30 -8z m-177 -1 c-7 -2 -19 -2 -25 0 -7 3 -2 5 12 5 14 0 19 -2
13 -5z m3947 -415 c47 -108 52 -120 57 -156 2 -20 9 -48 13 -62 5 -14 11 -44
14 -68 3 -24 10 -60 15 -80 10 -42 10 -38 17 -149 l6 -83 -54 -1 c-59 -1 -244
0 -328 2 -30 0 -59 0 -65 -1 -5 -1 -12 -2 -15 -1 -3 1 -99 2 -215 1 -200 0
-308 0 -330 1 -5 0 -38 -1 -72 -3 -51 -3 -63 -1 -64 12 -2 32 -10 76 -21 110
-7 19 -13 40 -14 45 -1 6 -5 17 -8 25 -4 10 3 19 24 28 16 7 32 13 35 13 3 0
31 13 64 29 32 17 65 30 72 30 8 0 28 8 44 18 17 10 46 24 65 32 19 7 67 28
107 47 40 18 75 33 79 33 4 0 36 14 71 30 34 17 69 30 76 30 8 0 17 3 21 8 4
4 11 7 14 7 4 1 36 15 71 33 34 18 72 32 82 32 10 0 19 4 19 9 0 5 24 17 53
27 28 9 58 21 65 27 6 5 12 7 12 3 0 -4 12 0 28 8 15 8 30 15 33 16 3 0 16
-24 29 -52z m-2210 -398 c0 -4 -25 -139 -29 -155 0 -3 -1 -17 -1 -33 l0 -27
-527 3 c-291 1 -532 3 -538 3 -5 1 -14 0 -20 -1 -5 -1 -26 -2 -46 -1 l-36 1 4
83 c3 45 5 92 6 104 1 21 6 22 70 22 38 0 70 1 72 3 6 5 1045 3 1045 -2z
m-687 -240 c222 4 633 6 644 2 11 -3 16 -18 28 -81 2 -13 9 -39 16 -58 14 -44
5 -55 -74 -83 -34 -13 -71 -28 -82 -34 -11 -7 -39 -18 -61 -24 -23 -7 -47 -19
-54 -27 -7 -8 -18 -15 -24 -15 -13 0 -139 -51 -186 -75 -18 -9 -44 -19 -57
-21 -14 -3 -48 -16 -76 -30 -29 -14 -69 -34 -90 -45 -22 -10 -45 -19 -52 -19
-7 0 -49 -18 -92 -40 -70 -35 -204 -90 -218 -90 -8 0 -24 45 -30 83 -4 17 -12
45 -19 62 -21 48 -34 96 -42 148 -6 44 -4 49 15 54 11 3 21 6 21 7 0 6 -40 80
-50 91 -7 8 -9 15 -6 15 4 0 2 9 -4 20 -6 12 -12 51 -14 88 l-3 68 200 1 c109
1 201 4 204 7 3 3 10 3 15 0 5 -3 46 -5 91 -4z m2031 -1 c56 2 142 3 191 3
243 -2 378 -2 577 2 l217 3 -4 -82 c-5 -106 -14 -189 -26 -240 -6 -22 -12 -53
-15 -70 -3 -16 -10 -35 -15 -41 -5 -6 -7 -13 -4 -16 8 -7 -52 -183 -62 -182
-19 1 -70 17 -103 32 -33 15 -153 60 -175 65 -5 2 -24 11 -42 20 -18 9 -39 17
-48 17 -8 0 -15 4 -15 9 0 5 -12 12 -27 16 -15 3 -46 15 -70 26 -23 10 -45 19
-48 19 -4 0 -39 16 -78 36 -40 19 -83 38 -97 40 -14 3 -38 12 -55 20 -16 9
-51 22 -77 30 -26 8 -50 19 -53 24 -8 13 -76 42 -83 36 -2 -3 -22 4 -44 15
-33 17 -39 24 -33 42 3 12 7 27 9 32 1 6 7 26 14 45 6 19 11 42 10 50 -3 34 3
49 20 53 9 2 21 1 26 -1 5 -3 55 -4 110 -3z m-1298 -251 c20 -39 50 -81 82
-116 l23 -26 -93 -94 c-51 -51 -99 -99 -107 -105 -7 -7 -141 -138 -297 -292
-386 -382 -339 -341 -361 -317 -10 12 -29 35 -43 53 -14 18 -39 48 -55 68 -49
57 -85 109 -85 120 0 6 -4 11 -9 11 -9 0 -27 30 -76 127 -14 29 -31 55 -36 58
-5 4 -9 14 -9 24 0 10 -7 24 -15 31 -25 21 -17 38 23 50 20 7 57 23 82 35 25
13 62 29 83 35 21 7 78 32 127 56 49 24 92 44 96 44 4 0 26 8 48 19 81 37 114
51 119 51 3 0 44 18 91 40 47 22 88 40 91 40 10 0 133 49 200 80 105 48 100
48 121 8z m1241 -28 c34 -16 74 -32 90 -36 15 -4 60 -22 98 -39 92 -43 202
-85 219 -85 8 0 16 -5 18 -11 2 -5 11 -11 20 -12 9 -2 22 -8 30 -14 7 -6 27
-15 43 -18 17 -4 62 -22 100 -41 64 -30 97 -43 110 -44 3 0 27 -11 53 -24 26
-13 66 -29 90 -35 l42 -12 -20 -39 c-11 -22 -18 -40 -16 -40 5 0 -26 -57 -79
-149 -48 -82 -156 -227 -231 -309 l-21 -23 -62 60 c-35 34 -65 61 -67 61 -1 0
-22 21 -46 46 -47 52 -125 129 -274 275 -55 53 -122 121 -150 150 -28 30 -90
91 -138 137 l-87 82 50 58 c28 32 51 63 51 68 0 6 8 19 17 31 16 19 19 20 57
6 23 -7 69 -27 103 -43z m-1070 -170 c25 -22 51 -40 57 -40 6 -1 21 -9 33 -19
l21 -18 -20 -59 c-11 -32 -23 -61 -27 -64 -5 -3 -11 -18 -15 -35 -7 -32 -60
-168 -76 -197 -6 -10 -10 -25 -10 -34 0 -9 -11 -37 -24 -63 -14 -25 -38 -84
-56 -129 -17 -46 -35 -91 -40 -100 -5 -10 -23 -51 -38 -92 -79 -202 -124 -310
-130 -310 -8 0 -197 92 -202 99 -3 3 -25 17 -50 30 -25 14 -50 30 -56 35 -6 6
-21 18 -34 26 -12 8 -34 25 -48 38 -15 12 -34 28 -42 35 -8 7 -28 21 -45 31
-16 10 -39 30 -51 44 l-21 26 61 55 c33 31 103 101 156 155 52 54 163 167 245
251 83 84 197 203 255 263 58 61 107 111 108 111 2 1 24 -17 49 -39z m857 -50
c46 -42 329 -324 486 -485 37 -38 109 -110 159 -159 72 -70 89 -92 80 -102 -6
-8 -15 -14 -19 -14 -4 0 -26 -17 -47 -37 -22 -21 -47 -43 -54 -48 -8 -6 -32
-24 -54 -40 -22 -17 -42 -33 -45 -36 -3 -3 -43 -28 -90 -54 -47 -27 -105 -61
-131 -75 -77 -47 -83 -46 -98 5 -7 25 -17 45 -22 45 -5 0 -9 5 -9 11 0 6 -15
43 -34 82 -19 40 -39 92 -46 117 -7 25 -21 57 -32 72 -11 16 -17 28 -13 28 3
0 -4 18 -15 41 -12 23 -19 43 -17 46 3 2 -6 21 -19 40 -13 20 -24 43 -24 52 0
10 -4 21 -8 27 -10 11 -42 90 -48 117 -2 10 -17 46 -34 80 -18 34 -33 69 -35
78 -2 9 -13 37 -24 63 -49 106 -53 121 -36 122 20 1 80 40 110 70 34 35 27 38
119 -46z m-629 -61 c28 -6 64 -13 80 -16 17 -3 31 -6 32 -7 2 -2 4 -63 2 -106
0 -8 2 -245 4 -526 3 -282 1 -517 -3 -524 -6 -9 -28 -11 -81 -7 -92 7 -315 41
-360 55 -19 6 -61 19 -94 28 -33 9 -70 23 -82 31 l-21 14 19 57 c10 31 26 71
34 87 24 50 72 168 85 210 7 22 16 44 21 49 5 6 9 16 9 24 0 8 8 26 18 40 10
15 24 47 31 72 7 25 21 59 31 75 10 17 21 42 23 55 6 29 29 85 63 153 13 26
24 55 24 65 0 10 6 26 14 37 7 11 23 47 35 79 28 76 29 78 49 72 10 -3 40 -10
67 -17z m374 -19 c12 -22 21 -45 21 -50 0 -5 14 -38 30 -74 17 -36 29 -69 28
-73 -1 -4 8 -28 21 -53 13 -24 34 -72 46 -105 13 -33 33 -85 45 -115 21 -53
30 -74 84 -191 14 -31 26 -60 26 -65 0 -5 8 -25 19 -44 10 -19 23 -53 30 -75
16 -53 54 -139 64 -143 13 -6 7 -42 -8 -42 -8 0 -38 -11 -67 -24 -52 -24 -188
-64 -238 -70 -14 -2 -41 -7 -60 -10 -99 -20 -132 -25 -186 -30 -28 -2 -55 -1
-60 2 -5 4 -10 104 -10 222 -1 118 -2 260 -2 315 -1 55 -1 118 -1 140 1 22 0
45 -1 50 -1 9 -1 63 3 326 2 98 3 105 22 107 61 5 112 15 134 27 36 20 37 20
60 -25z"/>
</g>
</svg>
